# xmcd
#
# Track frame offsets:
#	150
#	18612
#	35437
#	54925
#	70237
#	93200
#	109450
#	128962
#	152850
#	173150
#
# Disc length: 2480 seconds
#
# Revision: 0
# Processed by: cddbd v1.5.2PL0 Copyright (c) Steve Scherf et al.
# Submitted via: EZCDAudioConverter 7.1.5.1
#
DISCID=8309ae0a
DTITLE=张真 - 失恋十四行(珠海华声)
DYEAR=1993
DGENRE=
TTITLE0=失恋十四行
TTITLE1=我被青春撞了一下腰
TTITLE2=携手游人间
TTITLE3=少年先锋
TTITLE4=红颜
TTITLE5=醒世诗
TTITLE6=新正气歌
TTITLE7=红红好姑娘
TTITLE8=黄河大合唱
TTITLE9=男儿当自强
EXTD=
EXTT0=
EXTT1=
EXTT2=
EXTT3=
EXTT4=
EXTT5=
EXTT6=
EXTT7=
EXTT8=
EXTT9=
PLAYORDER=
